Coordinates
version=1
nRows=5
nColumns=40
inDegrees=yes

Units are S.I. units (second, meters, Newtons, ...)
If the header above contains a line with 'inDegrees', this indicates whether rotational values are in degrees (yes) or radians (no).

endheader
time	pelvis_tilt	pelvis_list	pelvis_rotation	pelvis_tx	pelvis_ty	pelvis_tz	hip_flexion_r	hip_adduction_r	hip_rotation_r	knee_angle_r	knee_angle_r_beta	ankle_angle_r	subtalar_angle_r	mtp_angle_r	hip_flexion_l	hip_adduction_l	hip_rotation_l	knee_angle_l	knee_angle_l_beta	ankle_angle_l	subtalar_angle_l	mtp_angle_l	lumbar_extension	lumbar_bending	lumbar_rotation	arm_flex_r	arm_add_r	arm_rot_r	elbow_flex_r	pro_sup_r	wrist_flex_r	wrist_dev_r	arm_flex_l	arm_add_l	arm_rot_l	elbow_flex_l	pro_sup_l	wrist_flex_l	wrist_dev_l
      7.32500000	     83.57796683	     59.20654750	     89.07068327	      0.39356195	      0.60526941	      0.81394912	     62.18985767	     -8.26557651	     -2.85618342	     24.03436979	      0.41947889	     -6.47481077	      0.00000000	      0.00000000	     58.16917165	    -17.80633913	    -19.81521350	     25.29084634	      0.44140854	     -3.46212153	      0.00000000	      0.00000000	    -59.91631671	    -13.26263461	    -12.74505101	     72.72193351	      9.08435858	     16.78654166	      7.99833134	     35.25147356	      0.00000000	      0.00000000	    -89.17431825	   -119.80037104	    -81.89387611	     70.56975354	     33.76765927	      0.00000000	      0.00000000
      7.33000000	     84.00135807	     59.25398177	     89.09525447	      0.39345771	      0.60488231	      0.81463040	     61.91240699	     -8.50323356	     -3.33508368	     23.81452761	      0.41564192	     -6.59446795	      0.00000000	      0.00000000	     58.06149397	    -17.46342922	    -19.17553152	     24.83773677	      0.43350029	     -3.79552753	      0.00000000	      0.00000000	    -59.78047679	    -12.80733304	    -12.73095263	     72.48810748	      9.08187194	     16.54518838	      8.06856925	     35.95114179	      0.00000000	      0.00000000	    -89.17297516	   -119.79960420	    -81.60292032	     70.53477043	     34.59764257	      0.00000000	      0.00000000
      7.33500000	     83.80441715	     59.41794358	     89.09209949	      0.39317485	      0.60554372	      0.81537491	     61.68181742	     -8.38546428	     -3.20906741	     23.68619329	      0.41340206	     -6.68983135	      0.00000000	      0.00000000	     57.68918827	    -17.58070929	    -19.58800610	     24.67512794	      0.43066223	     -3.89857977	      0.00000000	      0.00000000	    -59.75639239	    -13.09157081	    -12.66182074	     72.31729301	      9.20636024	     16.14889081	      8.57604326	     27.72389884	      0.00000000	      0.00000000	    -89.18592774	   -119.79943359	    -81.29619508	     71.35309152	     23.31564473	      0.00000000	      0.00000000
      7.34000000	     83.61333349	     59.55102166	     89.07534775	      0.39287196	      0.60611916	      0.81611467	     61.45635536	     -8.25996350	     -3.07982423	     23.50976039	      0.41032273	     -6.80238973	      0.00000000	      0.00000000	     57.33714743	    -17.68421210	    -19.94932436	     24.48039431	      0.42726348	     -3.99116223	      0.00000000	      0.00000000	    -59.70137599	    -13.34526698	    -12.62661307	     72.14711448	      9.19764385	     16.29294616	      8.19553566	     32.21681915	      0.00000000	      0.00000000	    -89.19742846	   -119.80021840	    -81.04821659	     70.90972685	     29.55872960	      0.00000000	      0.00000000
      7.34500000	     83.85056751	     59.66983634	     89.09290655	      0.39264353	      0.60605187	      0.81676075	     61.19447357	     -8.39921640	     -3.44346298	     23.39809975	      0.40837388	     -6.86669513	      0.00000000	      0.00000000	     57.15927874	    -17.49238455	    -19.58035970	     24.20805171	      0.42251021	     -4.19912200	      0.00000000	      0.00000000	    -59.63026191	    -13.11262693	    -12.58425912	     71.95129544	      9.17858471	     15.74550023	      8.19574492	     33.45809065	      0.00000000	      0.00000000	    -89.20361851	   -119.79960743	    -80.83039905	     70.85321815	     31.15016724	      0.00000000	      0.00000000
